# AST/ASF file generated using VICON BodyLanguage
# -----------------------------------------------
:version 1.10
:name VICON
:units
  mass 1.0
  length 0.45
  angle deg
:documentation
   .ast/.asf automatically generated from VICON data using
   VICON BodyBuilder and BodyLanguage model FoxedUp or BRILLIANT.MOD
:root
   order TX TY TZ RX RY RZ
   axis XYZ
   position 0 0 0  
   orientation 0 -0 0 
:bonedata
  begin
     id 1 
     name lhipjoint
     direction 0.500677 -0.737119 0.453848 
     length 2.34727 
     axis 0 -0 0  XYZ
  end
  begin
     id 2 
     name lfemur
     direction 0.34202 -0.939693 0  
     length 7.53653  
     axis 0 -0 20  XYZ
    dof rx ry rz
    limits (-160.0 20.0)
           (-70.0 70.0)
           (-60.0 70.0)
  end
  begin
     id 3 
     name ltibia
     direction 0.34202 -0.939693 0   
     length 6.85572   
     axis 0 -0 20   XYZ
    dof rx
    limits (-10.0 170.0)
  end
  begin
     id 4 
     name lfoot
     direction 0.155313 -0.426718 0.890949   
     length 2.18324   
     axis -90 -1.13533e-015 20   XYZ
    dof rx rz
    limits (-45.0 90.0)
           (-70.0 20.0)
  end
  begin
     id 5 
     name ltoes
     direction 1.53474e-011 -4.21647e-011 1   
     length 1.06748   
     axis -90 -1.13533e-015 20   XYZ
    dof rx
    limits (-90.0 20.0)
  end
  begin
     id 6 
     name rhipjoint
     direction -0.632471 -0.659587 0.406111   
     length 2.62319  
     axis 0 -0 0  XYZ 
  end
  begin
     id 7 
     name rfemur
     direction -0.34202 -0.939693 0   
     length 7.21735   
     axis 0 -0 -20   XYZ
    dof rx ry rz
    limits (-160.0 20.0)
           (-70.0 70.0)
           (-70.0 60.0)
  end
  begin
     id 8 
     name rtibia
     direction -0.34202 -0.939693 0   
     length 7.02558   
     axis 0 -0 -20   XYZ
    dof rx
    limits (-10.0 170.0)
 end
 begin
     id 9 
     name rfoot
     direction -0.16057 -0.441164 0.882945   
     length 2.10014  
     axis -90 1.13533e-015 -20   XYZ
    dof rx rz
    limits (-45.0 90.0)
           (-20.0 70.0)
  end
  begin
     id 10 
     name rtoes
     direction -1.53553e-011 -4.2192e-011 1   
     length 1.02554   
     axis -90 1.13533e-015 -20   XYZ
    dof rx
    limits (-90.0 20.0)
  end
  begin
     id 11 
     name lowerback
     direction 0.0401429 0.998861 -0.0258085   
     length 1.80848   
     axis 0 -0 0   XYZ
    dof rx ry rz
    limits (-20.0 45.0)
           (-30.0 30.0)
           (-30.0 30.0)
  end
  begin
     id 12 
     name upperback
     direction -0.0130978 0.999914 -0.000352645   
     length 1.8116   
     axis 0 -0 0   XYZ
    dof rx ry rz
    limits (-20.0 45.0)
           (-30.0 30.0)
           (-30.0 30.0)
  end
  begin
     id 13 
     name thorax
     direction -0.0300198 0.999453 0.0138573   
     length 1.81778   
     axis 0 -0 0   XYZ
    dof rx ry rz
    limits (-20.0 45.0)
           (-30.0 30.0)
           (-30.0 30.0)
  end
  begin
     id 14 
     name lowerneck
     direction -0.0401726 0.999191 -0.00173647   
     length 2.10594   
     axis 0 -0 0   XYZ
    dof rx ry rz
    limits (-20.0 45.0)
           (-30.0 30.0)
           (-30.0 30.0)
  end
  begin
     id 15 
     name upperneck
     direction 0.0119835 0.998501 0.0534085   
     length 2.07325   
     axis 0 -0 0   XYZ
    dof rx ry rz
    limits (-20.0 45.0)
           (-30.0 30.0)
           (-30.0 30.0)
  end
  begin
     id 16
     name head
     direction 0.00628309 0.999826 0.0175921  
     length 2.15096  
     axis 0 -0 0   XYZ
    dof rx ry rz
    limits (-20.0 45.0)
           (-30.0 30.0)
           (-30.0 30.0)
  end
  begin
     id 17 
     name lclavicle
     direction 0.895501 0.429681 -0.115981  
     length 4.18092  
     axis 0 -0 0   XYZ
    dof ry rz
    limits (-20.0 10.0)
           (0.0 20.0)
  end
  begin
     id 18 
     name lhumerus
     direction 1 -4.48961e-011 -3.38433e-028   
     length 5.77237   
     axis 180 -30 -90   XYZ
    dof rx ry rz
    limits (-60.0 90.0)
           (-90.0 90.0)
           (-90.0 90.0)
  end
  begin
     id 19
     name lradius
     direction 1 -4.4901e-011 1.11983e-026   
     length 2.91878   
     axis 180 -30 -90   XYZ
    dof rx
    limits (-10.0 170.0)
  end
  begin
     id 20
     name lwrist
     direction 1 -4.48934e-011 1.88176e-026   
     length 1.45939   
     axis -1.23311e-014 90 90   XYZ
    dof ry
    limits (-180.0 0.0)
 end
  begin
     id 21 
     name lhand
     direction 1 -4.4895e-011 3.76352e-026   
     length 1.06566   
     axis -2.40147e-014 90 90   XYZ
    dof rx rz
    limits (-90.0 90.0)
           (-45.0 45.0)
  end
  begin
     id 22 
     name lfingers
     direction 1 -4.49005e-011 7.52705e-026   
     length 0.859162   
     axis -4.80295e-014 90 90   XYZ
    dof rx
    limits (0.0 90.0)
  end
  begin
     id 23
     name lthumb
     direction 0.707107 -6.34885e-011 0.707107   
     length 1.23359   
     axis -90 45 -9.86935e-015   XYZ
    dof rx rz
    limits (-45.0 45.0)
           (-45.0 45.0)
  end
  begin
     id 24 
     name rclavicle
     direction -0.91006 0.40451 -0.0903492   
     length 4.23293  
     axis 0 -0 0   XYZ 
    dof ry rz
    limits (-10.0 20.0)
           (-20.0 0.0)
  end
  begin
     id 25 
     name rhumerus
     direction -1 -4.4897e-011 1.7415e-027  
     length 5.49854   
     axis 180 30 90   XYZ
    dof rx ry rz
    limits (-90.0 60.0)
           (-90.0 90.0)
           (-90.0 90.0)
  end
  begin
     id 26 
     name rradius
     direction -1 -4.48963e-011 1.21259e-026   
     length 3.1186   
     axis 180 30 90   XYZ
    dof rx
    limits (-10.0 170.0)
  end
  begin
     id 27 
     name rwrist
     direction -1 -4.48967e-011 1.88176e-026   
     length 1.5593   
     axis -1.23311e-014 -90 -90   XYZ
    dof ry
    limits (-180.0 0.0)
  end
  begin
     id 28
     name rhand
     direction -1 -4.4895e-011 3.76352e-026   
     length 0.71207   
     axis -2.40147e-014 -90 -90   XYZ
    dof rx rz
    limits (-90.0 90.0)
           (-45.0 45.0)
  end
  begin
     id 29
     name rfingers
     direction -1 -4.49005e-011 7.52705e-026   
     length 0.574089   
     axis -4.80295e-014 -90 -90   XYZ
    dof rx
    limits (0.0 90.0)
  end
  begin
     id 30
     name rthumb
     direction -0.707107 -6.34982e-011 0.707107   
     length 0.824281   
     axis -90 -45 9.86935e-015   XYZ
    dof rx rz
    limits (-45.0 45.0)
           (-45.0 45.0)
  end
:hierarchy
  begin
    root lhipjoint rhipjoint lowerback
    lhipjoint lfemur
    lfemur ltibia
    ltibia lfoot
    lfoot ltoes
    rhipjoint rfemur
    rfemur rtibia
    rtibia rfoot
    rfoot rtoes
    lowerback upperback
    upperback thorax
    thorax lowerneck lclavicle rclavicle
    lowerneck upperneck
    upperneck head
    lclavicle lhumerus
    lhumerus lradius
    lradius lwrist
    lwrist lhand lthumb
    lhand lfingers
    rclavicle rhumerus
    rhumerus rradius
    rradius rwrist
    rwrist rhand rthumb
    rhand rfingers
  end

#!OML:ASF C:\ViconDB\ViconDB\414\Spring2016\042216\male.ASF
:FULLY-SPECIFIED
:DEGREES
412
root 16.0342 15.905 5.17679 -170.755 39.376 -173.449
lowerback 5.88288 -3.27709 4.30927
upperback -0.517399 -4.01909 0.608955
thorax -4.08717 -2.07395 -1.39782
lowerneck -2.57399 3.21973 -5.26592
upperneck -20.9805 5.91087 1.90219
head -6.14735 3.65163 1.1635
rclavicle -2.84759e-014 -8.74653e-015
rhumerus -50.3259 -8.86857 -76.7983
rradius 31.2842
rwrist 27.413
rhand 7.10811 -24.3805
rfingers 7.12502
rthumb 32.3786 -51.5098
lclavicle -2.84759e-014 -8.74653e-015
lhumerus -48.2756 21.7802 73.2318
lradius 39.3683
lwrist -0.370422
lhand -12.3752 13.4916
lfingers 7.12502
lthumb 13.6954 43.0209
rfemur -20.2247 -4.0936 26.9167
rtibia 56.2476
rfoot -33.2366 -0.983362
rtoes -11.3818
lfemur -19.1435 0.0830621 -14.0103
ltibia 59.0233
lfoot -45.0358 22.6876
ltoes -23.5477
413
root 15.9064 15.6937 5.35576 -170.394 38.4914 -173.037
lowerback 7.23336 -3.44278 4.70335
upperback 0.0737313 -4.13419 0.586888
thorax -4.26818 -2.12484 -1.56835
lowerneck -3.43594 2.8994 -5.26936
upperneck -21.4808 5.67236 1.99734
head -6.15473 3.59595 1.21776
rclavicle 1.00983e-013 -2.38542e-015
rhumerus -46.2767 -11.7521 -77.454
rradius 29.0778
rwrist 31.6173
rhand 8.16971 -23.5878
rfingers 7.12502
rthumb 33.3884 -50.5053
lclavicle 1.00983e-013 -2.38542e-015
lhumerus -42.7538 22.3042 75.9395
lradius 36.6422
lwrist -2.05731
lhand -11.4673 13.3734
lfingers 7.12502
lthumb 14.5703 42.8417
rfemur -23.4064 -4.39659 28.0439
rtibia 60.6571
rfoot -34.5056 -3.57708
rtoes -12.936
lfemur -21.3127 0.550115 -13.4667
ltibia 61.9451
lfoot -46.9027 23.7203
ltoes -21.7922
414
root 15.7944 15.5795 5.50132 -170.459 37.9275 -173.945
lowerback 8.24906 -3.5311 4.17268
upperback 0.339008 -4.25903 0.272629
thorax -4.55372 -2.17584 -1.53251
lowerneck -4.59022 2.68182 -5.26806
upperneck -21.4992 5.56788 2.19479
head -5.96812 3.58583 1.30952
rclavicle 1.44218e-013 -1.35174e-014
rhumerus -42.8096 -14.4897 -78.3857
rradius 28.0532
rwrist 35.228
rhand 8.25329 -22.7283
rfingers 7.12502
rthumb 33.4678 -49.6286
lclavicle 1.44218e-013 -1.35174e-014
lhumerus -38.0715 21.8832 78.8291
lradius 35.2492
lwrist -3.44523
lhand -10.8103 13.5036
lfingers 7.12502
lthumb 15.2033 42.925
rfemur -26.9286 -4.87641 27.8951
rtibia 64.7216
rfoot -35.027 -6.00852
rtoes -15.7274
lfemur -24.2011 0.0646223 -14.2732
ltibia 65.1248
lfoot -47.1753 24.1383
ltoes -24.1058
415
root 15.6783 15.474 5.6562 -170.323 37.5859 -174.9
lowerback 9.30106 -3.52716 3.67407
upperback 0.390535 -4.26698 -0.0481352
thorax -5.07756 -2.17491 -1.52563
lowerneck -5.52814 2.35286 -5.48547
upperneck -21.6578 5.31006 2.42464
head -5.86391 3.51684 1.44635
rclavicle 2.76311e-014 1.59028e-014
rhumerus -39.7198 -15.5594 -80.3891
rradius 28.7281
rwrist 35.7335
rhand 7.56176 -23.011
rfingers 7.12502
rthumb 32.8103 -50.0511
lclavicle 2.76311e-014 1.59028e-014
lhumerus -34.082 20.6139 81.799
lradius 35.0888
lwrist -4.38536
lhand -10.5367 13.1224
lfingers 7.12502
lthumb 15.4667 42.5237
rfemur -30.6484 -5.53382 27.5884
rtibia 68.3076
rfoot -34.4296 -7.53259
rtoes -18.6988
lfemur -27.7948 -1.44987 -15.161
ltibia 68.613
lfoot -46.1493 24.5395
ltoes -24.4927
416
root 15.5661 15.3255 5.80414 -169.657 37.0736 -174.696
lowerback 10.0167 -3.62649 4.13167
upperback 0.701555 -4.30811 -0.116414
thorax -5.19422 -2.19518 -1.81411
lowerneck -6.17541 2.10669 -5.67363
upperneck -22.333 5.17932 2.4592
head -5.97406 3.53945 1.49723
rclavicle 4.27387e-014 7.95139e-015
rhumerus -36.3852 -14.8717 -83.2776
rradius 30.4782
rwrist 33.2339
rhand 6.71047 -23.9691
rfingers 7.12502
rthumb 32.0001 -51.175
lclavicle 4.27387e-014 7.95139e-015
lhumerus -30.1717 17.8732 85.0523
lradius 35.7783
lwrist -3.7434
lhand -10.6621 13.3174
lfingers 7.12502
lthumb 15.346 42.7279
rfemur -33.8165 -5.71068 28.0766
rtibia 71.4401
rfoot -34.2258 -7.91281
rtoes -19.3702
lfemur -31.4272 -1.60491 -14.8512
ltibia 72.3075
lfoot -44.7045 23.9026
ltoes -23.816
417
root 15.4495 15.1562 5.91582 -169.161 36.9041 -174.37
lowerback 10.618 -3.69614 4.8009
upperback 1.04526 -4.28118 -0.171996
thorax -5.22133 -2.18241 -2.22648
lowerneck -6.20217 1.93165 -5.78567
upperneck -23.5335 5.10232 2.25791
head -6.3535 3.60449 1.43803
rclavicle -1.80894e-014 -7.15625e-015
rhumerus -33.3093 -12.7351 -86.3007
rradius 32.825
rwrist 29.1764
rhand 5.95432 -24.2456
rfingers 7.12502
rthumb 31.2798 -51.5934
lclavicle -1.80894e-014 -7.15625e-015
lhumerus -26.9205 15.6274 87.6014
lradius 37.0294
lwrist -4.06097
lhand -9.55573 12.6189
lfingers 7.12502
lthumb 16.4114 41.9447
rfemur -36.2292 -5.47574 28.2831
rtibia 74.0945
rfoot -34.5568 -7.61129
rtoes -19.1222
lfemur -34.4779 -0.18328 -14.6869
ltibia 75.7736
lfoot -43.763 22.7676
ltoes -25.9782
418
root 15.3409 15.012 6.01364 -168.578 36.3204 -174.393
lowerback 10.5991 -3.90887 5.36041
upperback 1.29218 -4.49705 -0.242765
thorax -5.01742 -2.28776 -2.58727
lowerneck -5.84214 1.82783 -5.65533
upperneck -24.9928 5.03334 1.67295
head -6.8747 3.68355 1.19973
rclavicle -1.51871e-013 -8.74653e-015
rhumerus -30.6021 -9.06687 -89.1226
rradius 35.9454
rwrist 23.8577
rhand 5.85424 -24.2854
rfingers 7.12502
rthumb 31.1844 -51.6515
lclavicle -1.51871e-013 -8.74653e-015
lhumerus -24.169 12.0284 90.0914
lradius 39.2137
lwrist -2.16389
lhand -9.28177 12.303
lfingers 7.12502
lthumb 16.6752 41.6067
rfemur -38.5517 -5.6688 28.2415
rtibia 76.3404
rfoot -35.1613 -7.44814
rtoes -19.1995
lfemur -37.2919 0.329685 -14.8335
ltibia 78.6578
lfoot -43.4138 22.3417
ltoes -26.6434
419
root 15.2491 14.8985 6.08687 -168.061 35.8311 -174.515
lowerback 10.2519 -4.10377 5.73998
upperback 1.48426 -4.73554 -0.273678
thorax -4.67709 -2.39981 -2.82155
lowerneck -5.27143 1.8121 -5.40954
upperneck -26.2546 4.96332 0.845374
head -7.36688 3.75236 0.856144
rclavicle -4.35338e-014 -7.95139e-016
rhumerus -28.3121 -4.90132 -91.3472
rradius 39.19
rwrist 18.978
rhand 5.6895 -24.3333
rfingers 7.12502
rthumb 31.0274 -51.7296
lclavicle -4.35338e-014 -7.95139e-016
lhumerus -21.7579 8.81382 92.0455
lradius 41.2524
lwrist -0.726862
lhand -8.94683 11.4448
lfingers 7.12502
lthumb 16.9976 40.7211
rfemur -40.363 -5.5735 28.0084
rtibia 78.1437
rfoot -36.0163 -7.13536
rtoes -19.0938
lfemur -39.5566 0.572925 -15.0574
ltibia 80.8894
lfoot -43.4894 21.9072
ltoes -26.7577
420
root 15.1514 14.7962 6.17217 -167.527 35.6767 -174.802
lowerback 10.0923 -4.18058 5.86514
upperback 1.46173 -4.84355 -0.389739
thorax -4.64297 -2.45808 -3.00437
lowerneck -5.10524 1.82186 -5.0996
upperneck -26.669 4.89336 0.248188
head -7.51203 3.75964 0.598195
rclavicle 2.74323e-014 -1.82882e-014
rhumerus -26.283 -0.295252 -93.0611
rradius 42.3183
rwrist 15.3985
rhand 5.49368 -23.9938
rfingers 7.12502
rthumb 30.8407 -51.4255
lclavicle 2.74323e-014 -1.82882e-014
lhumerus -19.6145 5.66651 93.363
lradius 42.9691
lwrist 0.00357309
lhand -8.64525 10.1311
lfingers 7.12502
lthumb 17.2879 39.3822
rfemur -42.4324 -5.03214 27.585
rtibia 79.776
rfoot -36.3203 -6.98688
rtoes -19.2753
lfemur -41.8418 0.726165 -15.377
ltibia 82.6566
lfoot -43.4484 21.4718
ltoes -26.9913
421
root 15.0607 14.6964 6.26143 -167.339 35.6012 -174.949
lowerback 10.4103 -4.23374 6.06912
upperback 1.42191 -4.87317 -0.501628
thorax -4.89179 -2.48292 -3.20733
lowerneck -5.35467 1.83494 -5.01964
upperneck -26.1706 4.81825 0.020681
head -7.29187 3.70941 0.529274
rclavicle 4.01545e-014 3.57812e-014
rhumerus -24.3391 4.12703 -94.1313
rradius 45.0097
rwrist 13.3593
rhand 5.96791 -23.4063
rfingers 7.12502
rthumb 31.2927 -50.7515
lclavicle 4.01545e-014 3.57812e-014
lhumerus -17.6587 1.83981 94.4961
lradius 44.713
lwrist 2.23318
lhand -9.53226 10.1727
lfingers 7.12502
lthumb 16.434 39.4965
rfemur -44.1248 -4.56355 27.2983
rtibia 81.3218
rfoot -36.3648 -6.70883
rtoes -19.2927
lfemur -43.4237 0.655016 -15.4555
ltibia 84.0258
lfoot -43.5705 21.0404
ltoes -26.9613
422
root 14.9757 14.5906 6.34321 -167.419 35.7805 -175.058
lowerback 11.0238 -4.21519 6.32961
upperback 1.32076 -4.77742 -0.62836
thorax -5.36268 -2.45411 -3.458
lowerneck -5.99227 1.84006 -5.0635
upperneck -24.8699 4.69472 -0.0777306
head -6.74672 3.59388 0.550316
rclavicle 2.52457e-014 1.51076e-014
rhumerus -22.5084 8.618 -94.5416
rradius 47.4465
rwrist 12.4658
rhand 6.52933 -21.912
rfingers 7.12502
rthumb 31.8276 -49.1524
lclavicle 2.52457e-014 1.51076e-014
lhumerus -15.9108 -1.36279 95.2187
lradius 46.2369
lwrist 2.91566
lhand -9.3163 10.2948
lfingers 7.12502
lthumb 16.642 39.6014
rfemur -45.5701 -4.43754 27.1013
rtibia 82.873
rfoot -36.05 -6.45927
rtoes -19.8193
lfemur -44.475 0.569247 -15.5019
ltibia 85.1742
lfoot -43.9961 21.1935
ltoes -27.2576
423
root 14.9083 14.5073 6.40971 -168.184 35.6268 -175.439
lowerback 12.046 -4.39882 6.2632
upperback 1.20724 -4.95162 -0.689707
thorax -6.0722 -2.55335 -3.38383
lowerneck -6.41818 1.95547 -5.38809
upperneck -23.4207 4.72326 0.0477691
head -6.21436 3.53783 0.680965
rclavicle 4.90998e-014 -7.95139e-015
rhumerus -20.747 12.9145 -94.4089
rradius 49.5235
rwrist 12.3415
rhand 7.02912 -19.9325
rfingers 7.12502
rthumb 32.3034 -47.0772
lclavicle 4.90998e-014 -7.95139e-015
lhumerus -14.3737 -3.79359 95.6393
lradius 47.4957
lwrist 2.8308
lhand -8.48934 10.3975
lfingers 7.12502
lthumb 17.4379 39.6353
rfemur -46.2213 -5.08294 26.7165
rtibia 84.3521
rfoot -35.8833 -5.73011
rtoes -19.5124
lfemur -44.603 0.121204 -15.698
ltibia 86.0124
lfoot -44.4874 20.9877
ltoes -27.3839
424
root 14.8412 14.4247 6.47454 -168.896 35.7901 -175.908
lowerback 12.7706 -4.46388 6.18053
upperback 1.14838 -5.006 -0.882426
thorax -6.55575 -2.58954 -3.48198
lowerneck -6.80372 2.06303 -5.48644
upperneck -22.2257 4.77035 0.118566
head -5.77211 3.49375 0.747721
rclavicle -9.38264e-014 1.11319e-014
rhumerus -18.7175 16.4062 -93.8501
rradius 51.4906
rwrist 13.2702
rhand 8.96757 -17.6501
rfingers 7.12502
rthumb 34.1465 -44.4012
lclavicle -9.38264e-014 1.11319e-014
lhumerus -12.8676 -6.43261 95.631
lradius 48.947
lwrist 3.12541
lhand -8.23442 9.89178
lfingers 7.12502
lthumb 17.6833 39.1077
rfemur -46.9832 -5.62412 26.3216
rtibia 85.7156
rfoot -35.4494 -5.52288
rtoes -20.0318
lfemur -44.838 0.174728 -16.1373
ltibia 86.8001
lfoot -44.8389 20.8282
ltoes -27.2766
425
root 14.7803 14.3458 6.53474 -169.5 36.3092 -176.223
lowerback 13.2599 -4.4198 5.97338
upperback 1.17733 -4.94525 -0.978745
thorax -6.78157 -2.55588 -3.45155
lowerneck -7.00132 2.2072 -5.58603
upperneck -21.5492 4.89982 0.0990288
head -5.53117 3.52409 0.769838
rclavicle -8.5875e-014 2.94201e-014
rhumerus -16.3697 19.5897 -92.8093
rradius 53.4133
rwrist 14.7643
rhand 10.6194 -16.6599
rfingers 7.12502
rthumb 35.7136 -43.0463
lclavicle -8.5875e-014 2.94201e-014
lhumerus -11.3294 -8.76392 95.3612
lradius 50.717
lwrist 3.43162
lhand -7.72544 10.0669
lfingers 7.12502
lthumb 18.173 39.2379
rfemur -47.657 -5.65034 25.9816
rtibia 86.8951
rfoot -35.2877 -5.12091
rtoes -19.3863
lfemur -45.0267 0.791004 -16.6011
ltibia 87.5522
lfoot -45.1792 20.7449
ltoes -27.0294
